<?xml version="1.0" encoding="utf-8"?>
<!-- Generator: Adobe Illustrator 21.0.2, SVG Export Plug-In . SVG Version: 6.00 Build 0)  -->
<svg version="1.1" id="Layer_1" xmlns="http://www.w3.org/2000/svg" xmlns:xlink="http://www.w3.org/1999/xlink" x="0px" y="0px"
	 viewBox="0 0 383 408" style="enable-background:new 0 0 383 408;" xml:space="preserve">
<style type="text/css">
	.st0{fill:none;stroke:#000000;stroke-width:3;stroke-miterlimit:10;}
	.st1{fill:none;stroke:#000000;stroke-width:1.75;stroke-miterlimit:10;}
	.st2{fill:none;stroke:#000000;stroke-width:5.000000e-02;stroke-miterlimit:10;}
</style>
<path class="st0" d="M189.5,75.5c0,0,97.4-2.8,71.3,147.8c-25,144-100.8,98.1-100.8,98.1s-27.2-11.4-41.3-59.7
	c-8-35-23.2-94.4,3.3-140.9C122,120.8,144.3,76.5,189.5,75.5z"/>
<path class="st1" d="M157.1,127.2c0,0,26,0.5,18.5,51.9c-7.2,49.2-26.9,28.7-26.9,28.7s-29.4-19.3-9.5-60.3
	C139.3,147.5,148.2,125.1,157.1,127.2z"/>
<path class="st1" d="M220.2,211.9c0,0-26.4,1.7-22.9-49.1c3.3-48.6,24.8-30.2,24.8-30.2s27.9,30.3,11.1,72
	C233.1,204.6,229.4,213.1,220.2,211.9z"/>
<path class="st1" d="M159.1,129.2c0,0,26,0.5,18.5,51.9c-7.2,49.2-26.9,28.7-26.9,28.7s-29.4-19.3-9.5-60.3
	C141.3,149.5,150.2,127.1,159.1,129.2z"/>
<path class="st1" d="M157.1,123.2c0,0,26,0.5,18.5,51.9c-7.2,49.2-26.9,28.7-26.9,28.7s-29.4-19.3-9.5-60.3
	C139.3,143.5,148.2,121.1,157.1,123.2z"/>
<path class="st1" d="M157.1,129.2c0,0,26,0.5,18.5,51.9c-7.2,49.2-26.9,28.7-26.9,28.7s-29.4-19.3-9.5-60.3
	C139.3,149.5,148.2,127.1,157.1,129.2z"/>
<path class="st1" d="M161.4,123.3c0,0,26,1.9,15.6,52.8c-9.9,48.7-28.4,27.2-28.4,27.2s-26-27.7-3.8-67.6
	C144.9,135.8,152.6,120.8,161.4,123.3z"/>
<path class="st1" d="M156.1,123.2c0,0,26,0.5,18.5,51.9c-7.2,49.2-26.9,28.7-26.9,28.7s-29.4-19.3-9.5-60.3
	C138.3,143.5,147.2,121.1,156.1,123.2z"/>
<path class="st1" d="M220.2,209.9c0,0-26.4,1.7-22.9-49.1c3.3-48.6,24.8-30.2,24.8-30.2s27.9,30.3,11.1,72
	C233.1,202.6,229.4,211.1,220.2,209.9z"/>
<path class="st1" d="M223.2,212.6c0,0-26.2,3.7-26.5-47.2c-0.3-48.7,22.5-32,22.5-32s29.5,28,15.9,70.8
	C235.1,204.2,232.5,213.2,223.2,212.6z"/>
<path class="st1" d="M218.4,216.9c0,0-26.4,0.6-20.8-50c5.4-48.4,26.1-29.1,26.1-29.1s26.8,31.6,8.2,72.5
	C231.9,210.3,227.5,218.6,218.4,216.9z"/>
<path class="st1" d="M223.2,210.9c0,0-26.4,1.7-22.9-49.1c3.3-48.6,24.8-30.2,24.8-30.2s27.9,30.3,11.1,72
	C236.1,203.6,232.4,212.1,223.2,210.9z"/>
<path class="st1" d="M223.3,209.6c0,0-26.2,3.7-26.5-47.2c-0.3-48.7,22.5-32,22.5-32s29.5,28,15.9,70.8
	C235.2,201.2,232.6,210.2,223.3,209.6z"/>
<rect x="66" y="70.3" class="st2" width="251" height="267.4"/>
</svg>
