<?xml version="1.0" encoding="utf-8"?>
<!-- Generator: Adobe Illustrator 21.0.2, SVG Export Plug-In . SVG Version: 6.00 Build 0)  -->
<svg version="1.1" id="Capa_1" xmlns="http://www.w3.org/2000/svg" xmlns:xlink="http://www.w3.org/1999/xlink" x="0px" y="0px"
	 viewBox="0 0 448 448" style="enable-background:new 0 0 448 448;" xml:space="preserve">
<style type="text/css">
	.st0{fill:#2196F3;}
	.st1{fill:#EC407A;}
	.st2{fill:#455A64;}
	.st3{fill:#FFFFFF;}
</style>
<path class="st0" d="M106.7,21.3C47.8,21.3,0,69.1,0,128c0,58.9,47.8,106.7,106.7,106.7c0.9,0,1.7,0,2.5,0c1.6,0,3.2-0.1,4.8-0.2
	c47.8-3.3,86.9-38,96.9-83.6c0,0,0,0,0,0c0.3-1.5,0.6-3,0.9-4.6c0.3-1.6,0.5-3.3,0.7-4.9c0.3-2.6,0.5-5.2,0.7-7.8
	c0.1-1.8,0.1-3.7,0.1-5.5C213.3,69.1,165.6,21.3,106.7,21.3z M106.7,213.3c-47.1,0-85.3-38.2-85.3-85.3c0-47.1,38.2-85.3,85.3-85.3
	c47.1,0,85.3,38.2,85.3,85.3C192,175.1,153.8,213.3,106.7,213.3z"/>
<path class="st1" d="M341.3,21.3c-58.9,0-106.7,47.8-106.7,106.7c0,58.9,47.8,106.7,106.7,106.7c58.9,0,106.7-47.8,106.7-106.7
	C448,69.1,400.2,21.3,341.3,21.3z M256,128c0-47.1,38.2-85.3,85.3-85.3s85.3,38.2,85.3,85.3c0,47.1-38.2,85.3-85.3,85.3
	C294.2,213.3,256,175.1,256,128z"/>
<g>
	<path class="st2" d="M32,426.6c-5.9,0-10.7-4.8-10.7-10.7v-85.3c0-17.7,14.3-32,32-32H64c5.9,0,10.7,4.8,10.7,10.7S69.9,320,64,320
		H53.3c-5.9,0-10.7,4.8-10.7,10.7V416C42.7,421.9,37.9,426.6,32,426.6z"/>
	<path class="st2" d="M64,362.6H10.7C4.8,362.6,0,357.9,0,352c0-5.9,4.8-10.7,10.7-10.7H64c5.9,0,10.7,4.8,10.7,10.7
		C74.7,357.9,69.9,362.6,64,362.6z"/>
	<path class="st2" d="M96,426.6c-5.9,0-10.7-4.8-10.7-10.7V309.3c0-5.9,4.8-10.7,10.7-10.7s10.7,4.8,10.7,10.7V416
		C106.7,421.9,101.9,426.6,96,426.6z"/>
	<path class="st2" d="M138.7,426.6c-5.9,0-10.7-4.8-10.7-10.7v-64c0-5.9,4.8-10.7,10.7-10.7s10.7,4.8,10.7,10.7v64
		C149.3,421.9,144.6,426.6,138.7,426.6z"/>
	<path class="st2" d="M213.3,426.6c-23.6,0-42.7-19.1-42.7-42.7s19.1-42.7,42.7-42.7c15-1.4,29.8,4,40.4,14.7
		c3.7,4.6,2.9,11.3-1.8,15c-4.6,3.7-11.3,2.9-15-1.8l0,0c-6.7-5.1-15.2-7.5-23.6-6.6c-11.8,0-21.3,9.6-21.3,21.3s9.6,21.3,21.3,21.3
		c8.8,0.5,17.6-2.2,24.6-7.7c4.2-4,10.9-3.8,14.9,0.3c4.1,4.1,4.1,10.8,0,14.9C241.9,422.4,227.8,427.3,213.3,426.6z"/>
	<path class="st2" d="M288,426.6c-5.9,0-10.7-4.8-10.7-10.7V309.3c0-5.9,4.8-10.7,10.7-10.7s10.7,4.8,10.7,10.7V416
		C298.7,421.9,293.9,426.6,288,426.6z"/>
	<path class="st2" d="M330.7,426.6c-2.8,0-5.5-1.1-7.6-3.1l-42.7-42.7c-4.2-4.2-4.2-10.9,0-15.1c0.5-0.5,1-1,1.6-1.3l32-21.3
		c4.9-3.3,11.5-1.9,14.8,3s1.9,11.5-3,14.8L304.7,375l33.5,33.5c4.2,4.2,4.1,10.9,0,15.1C336.2,425.5,333.5,426.6,330.7,426.6z"/>
	<path class="st2" d="M373.3,426.6c-5.9,0-10.7-4.8-10.7-10.7v-64c0-5.9,4.8-10.7,10.7-10.7S384,346.1,384,352v64
		C384,421.9,379.2,426.6,373.3,426.6z"/>
	<path class="st2" d="M373.3,405.3c-5.9,0-10.7-4.8-10.7-10.7c0-29.5,23.9-53.3,53.3-53.3c5.9,0,10.7,4.8,10.7,10.7
		s-4.8,10.7-10.7,10.7c-17.7,0-32,14.3-32,32C384,400.5,379.2,405.3,373.3,405.3z"/>
	<path class="st2" d="M139.1,320c-5.9,0-10.7-4.8-10.7-10.7s4.8-10.7,10.7-10.7h0.2c5.9,0,10.7,4.8,10.7,10.7s-4.8,10.7-10.7,10.7
		H139.1z"/>
</g>
<path class="st3" d="M106.7,21.3C47.8,21.3,0,69.1,0,128c0,58.9,47.8,106.7,106.7,106.7c0.9,0,1.7,0,2.5,0c1.6,0,3.2-0.1,4.8-0.2
	c47.8-3.3,86.8-38,96.9-83.6c0,0,0,0,0,0c0.3-1.5,0.6-3,0.9-4.6c0.3-1.6,0.5-3.3,0.7-4.9c0.3-2.6,0.5-5.2,0.7-7.8
	c0.1-1.8,0.1-3.7,0.1-5.5C213.3,69.1,165.6,21.3,106.7,21.3z M106.7,213.3c-47.1,0-85.3-38.2-85.3-85.3c0-47.1,38.2-85.3,85.3-85.3
	c47.1,0,85.3,38.2,85.3,85.3C192,175.1,153.8,213.3,106.7,213.3z"/>
<path class="st3" d="M341.3,21.3c-58.9,0-106.7,47.8-106.7,106.7c0,58.9,47.8,106.7,106.7,106.7c58.9-0.1,106.6-47.8,106.7-106.7
	C448,69.1,400.2,21.3,341.3,21.3z M341.3,213.3c-47.1,0-85.3-38.2-85.3-85.3c0-47.1,38.2-85.3,85.3-85.3s85.3,38.2,85.3,85.3
	C426.7,175.1,388.5,213.3,341.3,213.3z"/>
<path class="st3" d="M32,426.6c-5.9,0-10.7-4.8-10.7-10.7v-85.3c0-17.7,14.3-32,32-32H64c5.9,0,10.7,4.8,10.7,10.7S69.9,320,64,320
	H53.3c-5.9,0-10.7,4.8-10.7,10.7V416C42.7,421.9,37.9,426.6,32,426.6z"/>
<path class="st3" d="M64,362.6H10.7C4.8,362.6,0,357.9,0,352c0-5.9,4.8-10.7,10.7-10.7H64c5.9,0,10.7,4.8,10.7,10.7
	C74.7,357.9,69.9,362.6,64,362.6z"/>
<path class="st3" d="M96,426.6c-5.9,0-10.7-4.8-10.7-10.7V309.3c0-5.9,4.8-10.7,10.7-10.7s10.7,4.8,10.7,10.7V416
	C106.7,421.9,101.9,426.6,96,426.6z"/>
<path class="st3" d="M138.7,426.6c-5.9,0-10.7-4.8-10.7-10.7v-64c0-5.9,4.8-10.7,10.7-10.7s10.7,4.8,10.7,10.7v64
	C149.3,421.9,144.6,426.6,138.7,426.6z"/>
<path class="st3" d="M213.3,426.6c-23.6,0-42.7-19.1-42.7-42.7s19.1-42.7,42.7-42.7c15-1.4,29.8,4,40.4,14.7
	c3.7,4.6,2.9,11.3-1.7,15c-4.6,3.7-11.3,2.9-15-1.7c-6.7-5.1-15.2-7.5-23.6-6.6c-11.8,0-21.3,9.6-21.3,21.3s9.6,21.3,21.3,21.3
	c8.8,0.5,17.6-2.2,24.6-7.7c4.2-4,10.9-3.8,14.9,0.3c4.1,4.1,4.1,10.8,0,14.9C241.9,422.4,227.8,427.3,213.3,426.6z"/>
<path class="st3" d="M288,426.6c-5.9,0-10.7-4.8-10.7-10.7V309.3c0-5.9,4.8-10.7,10.7-10.7s10.7,4.8,10.7,10.7V416
	C298.7,421.9,293.9,426.6,288,426.6z"/>
<path class="st3" d="M330.7,426.6c-2.8,0-5.5-1.1-7.6-3.1l-42.7-42.7c-4.2-4.2-4.2-10.9,0-15.1c0.5-0.5,1-1,1.6-1.3l32-21.3
	c4.9-3.3,11.5-1.9,14.8,3s1.9,11.5-3,14.8L304.7,375l33.5,33.5c4.2,4.2,4.1,10.9,0,15.1C336.2,425.5,333.5,426.6,330.7,426.6z"/>
<path class="st3" d="M373.3,426.6c-5.9,0-10.7-4.8-10.7-10.7v-64c0-5.9,4.8-10.7,10.7-10.7S384,346.1,384,352v64
	C384,421.9,379.2,426.6,373.3,426.6z"/>
<path class="st3" d="M373.3,405.3c-5.9,0-10.7-4.8-10.7-10.7c0-29.5,23.9-53.3,53.3-53.3c5.9,0,10.7,4.8,10.7,10.7
	s-4.8,10.7-10.7,10.7c-17.7,0-32,14.3-32,32C384,400.5,379.2,405.3,373.3,405.3z"/>
<path class="st3" d="M139.1,320c-5.9,0-10.7-4.8-10.7-10.7c0-5.9,4.7-10.6,10.6-10.7h0.2c5.9,0,10.7,4.8,10.7,10.7
	s-4.8,10.7-10.7,10.7H139.1z"/>
</svg>
